<svg width="590" height="389" viewBox="0 0 590 389" fill="none" xmlns="http://www.w3.org/2000/svg">
<path d="M513.044 290.049C505.77 277.573 495.302 267.21 482.691 260.004C470.081 252.798 455.773 249.003 441.208 249L441.208 290.049L513.044 290.049Z" fill="#A9DDD1"/>
<g filter="url(#filter0_d)">
<g clip-path="url(#clip0)">
<rect x="407" y="276.366" width="68.4156" height="68.4156" rx="26" fill="#F3F6F7"/>
<rect x="407" y="276.366" width="68.4156" height="68.4156" fill="white"/>
<path d="M453.098 304.181C454.079 306.178 453.514 308.591 451.747 309.943L442.23 316.815C441.559 317.299 440.652 317.299 439.981 316.815L430.464 309.943C428.587 308.525 428.078 305.921 429.285 303.901V303.901C430.503 302.309 432.379 301.358 434.383 301.318" stroke="#A9DDD1" stroke-width="2" stroke-linecap="round" stroke-linejoin="round"/>
<path d="M428.621 306.102V314.397C428.703 315.7 429.383 316.893 430.463 317.627L439.98 324.498C440.651 324.982 441.557 324.982 442.229 324.498L451.745 317.627C452.826 316.893 453.506 315.7 453.588 314.397V306.102" stroke="#A9DDD1" stroke-width="2" stroke-linecap="round" stroke-linejoin="round"/>
<path fill-rule="evenodd" clip-rule="evenodd" d="M450.826 301.416C449.7 302.542 444.714 303.454 444.714 303.454C444.714 303.454 445.626 298.467 446.751 297.342C447.479 296.614 448.54 296.33 449.534 296.596C450.529 296.863 451.305 297.639 451.572 298.633C451.838 299.628 451.554 300.689 450.826 301.416Z" stroke="#A9DDD1" stroke-width="2" stroke-linecap="round" stroke-linejoin="round"/>
<path fill-rule="evenodd" clip-rule="evenodd" d="M438.602 301.416C439.728 302.542 444.714 303.454 444.714 303.454C444.714 303.454 443.802 298.467 442.677 297.342C441.552 296.217 439.727 296.217 438.602 297.342C437.477 298.467 437.477 300.291 438.602 301.416Z" stroke="#A9DDD1" stroke-width="2" stroke-linecap="round" stroke-linejoin="round"/>
<path d="M444.714 303.454L440.873 307.295" stroke="#A9DDD1" stroke-width="2" stroke-linecap="round" stroke-linejoin="round"/>
<path d="M444.714 303.454L448.556 307.295" stroke="#A9DDD1" stroke-width="2" stroke-linecap="round" stroke-linejoin="round"/>
</g>
</g>
<path d="M503.437 62.301C495.878 49.14 484.997 38.209 471.891 30.6077C458.785 23.0064 443.915 19.0029 428.777 19L428.777 62.301L503.437 62.301Z" fill="#F99685"/>
<path d="M442.844 156.223C429.697 133.192 410.774 114.062 387.981 100.76C365.187 87.4578 339.326 80.4517 313 80.4465V156.223H442.844Z" fill="#A9DDD1"/>
<path d="M460.156 156.223C473.303 179.255 492.226 198.384 515.019 211.686C537.813 224.989 563.673 231.995 590 232L590 156.223L460.156 156.223Z" fill="#A9DDD1"/>
<path d="M442.844 156.223C429.697 179.255 410.774 198.384 387.981 211.686C365.187 224.989 339.326 231.995 313 232V156.223H442.844Z" fill="#F99685"/>
<path d="M460.156 156.223C473.303 133.192 492.226 114.062 515.019 100.76C537.813 87.4578 563.673 80.4517 590 80.4465L590 156.223L460.156 156.223Z" fill="#F99685"/>
<path d="M252.08 229.035C243.913 243.006 232.159 254.609 218.001 262.678C203.842 270.747 187.778 274.997 171.425 275L171.425 229.035L252.08 229.035Z" fill="#F99685"/>
<g filter="url(#filter1_d)">
<g clip-path="url(#clip1)">
<rect x="135" y="177" width="78.6074" height="78.6074" rx="26" fill="#F3F6F7"/>
<rect x="135" y="177" width="78.6074" height="78.6074" fill="white"/>
<path d="M156.022 234.358H192.625" stroke="#F99685" stroke-width="2" stroke-linecap="round" stroke-linejoin="round"/>
<path d="M174.323 208.005V211.769" stroke="#F99685" stroke-width="2" stroke-linecap="round" stroke-linejoin="round"/>
<path fill-rule="evenodd" clip-rule="evenodd" d="M176.938 200.475C176.938 201.861 175.767 202.985 174.323 202.985C172.879 202.985 171.709 201.861 171.709 200.475C171.709 199.089 174.323 196.71 174.323 196.71C174.323 196.71 176.938 199.089 176.938 200.475Z" stroke="#F99685" stroke-width="2" stroke-linecap="round" stroke-linejoin="round"/>
<path d="M184.781 208.005V211.769" stroke="#F99685" stroke-width="2" stroke-linecap="round" stroke-linejoin="round"/>
<path fill-rule="evenodd" clip-rule="evenodd" d="M187.396 200.475C187.396 201.861 186.225 202.985 184.781 202.985C183.337 202.985 182.167 201.861 182.167 200.475C182.167 199.089 184.781 196.71 184.781 196.71C184.781 196.71 187.396 199.089 187.396 200.475Z" stroke="#F99685" stroke-width="2" stroke-linecap="round" stroke-linejoin="round"/>
<path d="M163.865 208.005V211.769" stroke="#F99685" stroke-width="2" stroke-linecap="round" stroke-linejoin="round"/>
<path fill-rule="evenodd" clip-rule="evenodd" d="M166.48 200.475C166.48 201.861 165.309 202.985 163.865 202.985C162.422 202.985 161.251 201.861 161.251 200.475C161.251 199.089 163.865 196.71 163.865 196.71C163.865 196.71 166.48 199.089 166.48 200.475Z" stroke="#F99685" stroke-width="2" stroke-linecap="round" stroke-linejoin="round"/>
<path d="M158.637 217.417C158.634 219.202 159.76 220.811 161.483 221.485C163.205 222.159 165.182 221.763 166.48 220.484C167.47 221.463 168.88 221.941 170.291 221.777C171.702 221.613 172.952 220.825 173.67 219.647C174.484 220.986 175.977 221.809 177.591 221.809C179.206 221.809 180.699 220.986 181.513 219.647C182.557 221.353 184.663 222.175 186.651 221.653C188.638 221.131 190.015 219.395 190.01 217.417" stroke="#F99685" stroke-width="2" stroke-linecap="round" stroke-linejoin="round"/>
<rect x="158.637" y="211.769" width="31.3736" height="17.5692" rx="1.1087" stroke="#F99685" stroke-width="2" stroke-linecap="round" stroke-linejoin="round"/>
</g>
</g>
<g filter="url(#filter2_d)">
<g clip-path="url(#clip2)">
<rect x="68" y="16" width="60" height="60" rx="22" fill="#F3F6F7"/>
<g filter="url(#filter3_d)">
<rect x="68" y="16" width="60" height="60" rx="22" fill="white"/>
</g>
<path fill-rule="evenodd" clip-rule="evenodd" d="M92.1871 35.4379L93.3845 37.7933H95.4236C95.6528 37.7887 95.8616 37.9246 95.9502 38.1361C96.0389 38.3476 95.9893 38.5918 95.8252 38.752L93.953 40.5917L94.9902 42.974C95.084 43.1977 95.0244 43.4563 94.8421 43.6164C94.6599 43.7765 94.3957 43.8023 94.1859 43.6805L91.679 42.2674L89.1721 43.6805C88.9623 43.8023 88.6982 43.7765 88.5159 43.6164C88.3336 43.4563 88.274 43.1977 88.3678 42.974L89.4051 40.5917L87.5328 38.7491C87.3687 38.5889 87.3192 38.3448 87.4078 38.1333C87.4964 37.9218 87.7052 37.7859 87.9345 37.7905H89.9735L91.17 35.4379C91.2667 35.2458 91.4634 35.1246 91.6785 35.1246C91.8936 35.1246 92.0903 35.2458 92.1871 35.4379Z" stroke="#F99685" stroke-width="1.5" stroke-linecap="round" stroke-linejoin="round"/>
<path fill-rule="evenodd" clip-rule="evenodd" d="M104.41 39.03L105.607 41.3854H107.647C107.876 41.3808 108.085 41.5168 108.173 41.7282C108.262 41.9397 108.212 42.1839 108.048 42.3441L106.176 44.1847L107.209 46.5661C107.303 46.7898 107.244 47.0484 107.061 47.2085C106.879 47.3686 106.615 47.3944 106.405 47.2726L103.902 45.8624L101.395 47.2726C101.185 47.3944 100.921 47.3686 100.739 47.2085C100.557 47.0484 100.497 46.7898 100.591 46.5661L101.628 44.1847L99.7558 42.3412C99.5917 42.181 99.5421 41.9369 99.6307 41.7254C99.7194 41.5139 99.9282 41.378 100.157 41.3826H102.197L103.393 39.0271C103.49 38.8353 103.687 38.7147 103.902 38.7153C104.117 38.7159 104.314 38.8376 104.41 39.03Z" stroke="#F99685" stroke-width="1.5" stroke-linecap="round" stroke-linejoin="round"/>
<path d="M92.398 45.1914C94.8106 48.5355 96.0721 52.5725 95.993 56.6953" stroke="#F99685" stroke-width="1.5" stroke-linecap="round" stroke-linejoin="round"/>
<path d="M101.745 56.6953C101.657 53.9868 102.147 51.2906 103.183 48.7864" stroke="#F99685" stroke-width="1.5" stroke-linecap="round" stroke-linejoin="round"/>
</g>
</g>
<g filter="url(#filter4_d)">
<g clip-path="url(#clip3)">
<rect x="10" y="284" width="91.2727" height="91.2727" rx="36.5091" fill="#F3F6F7"/>
<rect x="10" y="284" width="91.2727" height="91.2727" fill="white"/>
<path fill-rule="evenodd" clip-rule="evenodd" d="M70.5312 328.344H40.4688V344.531C40.4688 345.808 41.5041 346.844 42.7812 346.844H68.2187C69.4959 346.844 70.5312 345.808 70.5312 344.531V328.344Z" stroke="#A9DDD1" stroke-width="2" stroke-linecap="round" stroke-linejoin="round"/>
<path fill-rule="evenodd" clip-rule="evenodd" d="M70.5312 321.406H40.4687C39.1916 321.406 38.1562 322.442 38.1562 323.719V327.187C38.1562 327.826 38.6739 328.344 39.3125 328.344H71.6875C72.3261 328.344 72.8437 327.826 72.8437 327.187V323.719C72.8437 322.442 71.8084 321.406 70.5312 321.406Z" stroke="#A9DDD1" stroke-width="2" stroke-linecap="round" stroke-linejoin="round"/>
<path d="M54.3437 321.406C49.2347 321.406 43.9375 317.265 43.9375 312.156" stroke="#A9DDD1" stroke-width="2" stroke-linecap="round" stroke-linejoin="round"/>
<path d="M43.9375 312.156C49.0466 312.156 54.3437 316.297 54.3437 321.406" stroke="#A9DDD1" stroke-width="2" stroke-linecap="round" stroke-linejoin="round"/>
<path d="M56.6562 321.406C61.7653 321.406 67.0625 317.265 67.0625 312.156" stroke="#A9DDD1" stroke-width="2" stroke-linecap="round" stroke-linejoin="round"/>
<path d="M67.0625 312.156C61.9534 312.156 56.6562 316.297 56.6562 321.406" stroke="#A9DDD1" stroke-width="2" stroke-linecap="round" stroke-linejoin="round"/>
<rect x="52.0312" y="321.406" width="6.9375" height="25.4375" stroke="#A9DDD1" stroke-width="2" stroke-linecap="round" stroke-linejoin="round"/>
</g>
</g>
<defs>
<filter id="filter0_d" x="387.502" y="260.582" width="107.412" height="107.412" filterUnits="userSpaceOnUse" color-interpolation-filters="sRGB">
<feFlood flood-opacity="0" result="BackgroundImageFix"/>
<feColorMatrix in="SourceAlpha" type="matrix" values="0 0 0 0 0 0 0 0 0 0 0 0 0 0 0 0 0 0 127 0"/>
<feOffset dy="3.71393"/>
<feGaussianBlur stdDeviation="9.74907"/>
<feColorMatrix type="matrix" values="0 0 0 0 0.462791 0 0 0 0 0.353452 0 0 0 0 0.334485 0 0 0 0.15 0"/>
<feBlend mode="normal" in2="BackgroundImageFix" result="effect1_dropShadow"/>
<feBlend mode="normal" in="SourceGraphic" in2="effect1_dropShadow" result="shape"/>
</filter>
<filter id="filter1_d" x="115.502" y="161.216" width="117.604" height="117.604" filterUnits="userSpaceOnUse" color-interpolation-filters="sRGB">
<feFlood flood-opacity="0" result="BackgroundImageFix"/>
<feColorMatrix in="SourceAlpha" type="matrix" values="0 0 0 0 0 0 0 0 0 0 0 0 0 0 0 0 0 0 127 0"/>
<feOffset dy="3.71393"/>
<feGaussianBlur stdDeviation="9.74907"/>
<feColorMatrix type="matrix" values="0 0 0 0 0.462791 0 0 0 0 0.353452 0 0 0 0 0.334485 0 0 0 0.15 0"/>
<feBlend mode="normal" in2="BackgroundImageFix" result="effect1_dropShadow"/>
<feBlend mode="normal" in="SourceGraphic" in2="effect1_dropShadow" result="shape"/>
</filter>
<filter id="filter2_d" x="48.5019" y="0.215784" width="98.9963" height="98.9963" filterUnits="userSpaceOnUse" color-interpolation-filters="sRGB">
<feFlood flood-opacity="0" result="BackgroundImageFix"/>
<feColorMatrix in="SourceAlpha" type="matrix" values="0 0 0 0 0 0 0 0 0 0 0 0 0 0 0 0 0 0 127 0"/>
<feOffset dy="3.71393"/>
<feGaussianBlur stdDeviation="9.74907"/>
<feColorMatrix type="matrix" values="0 0 0 0 0.462791 0 0 0 0 0.353452 0 0 0 0 0.334485 0 0 0 0.15 0"/>
<feBlend mode="normal" in2="BackgroundImageFix" result="effect1_dropShadow"/>
<feBlend mode="normal" in="SourceGraphic" in2="effect1_dropShadow" result="shape"/>
</filter>
<filter id="filter3_d" x="48.5019" y="0.215784" width="98.9963" height="98.9963" filterUnits="userSpaceOnUse" color-interpolation-filters="sRGB">
<feFlood flood-opacity="0" result="BackgroundImageFix"/>
<feColorMatrix in="SourceAlpha" type="matrix" values="0 0 0 0 0 0 0 0 0 0 0 0 0 0 0 0 0 0 127 0"/>
<feOffset dy="3.71393"/>
<feGaussianBlur stdDeviation="9.74907"/>
<feColorMatrix type="matrix" values="0 0 0 0 0.462791 0 0 0 0 0.353452 0 0 0 0 0.334485 0 0 0 0.15 0"/>
<feBlend mode="normal" in2="BackgroundImageFix" result="effect1_dropShadow"/>
<feBlend mode="normal" in="SourceGraphic" in2="effect1_dropShadow" result="shape"/>
</filter>
<filter id="filter4_d" x="0" y="277.714" width="111.273" height="111.273" filterUnits="userSpaceOnUse" color-interpolation-filters="sRGB">
<feFlood flood-opacity="0" result="BackgroundImageFix"/>
<feColorMatrix in="SourceAlpha" type="matrix" values="0 0 0 0 0 0 0 0 0 0 0 0 0 0 0 0 0 0 127 0"/>
<feOffset dy="3.71393"/>
<feGaussianBlur stdDeviation="5"/>
<feColorMatrix type="matrix" values="0 0 0 0 0.462791 0 0 0 0 0.353452 0 0 0 0 0.334485 0 0 0 0.15 0"/>
<feBlend mode="normal" in2="BackgroundImageFix" result="effect1_dropShadow"/>
<feBlend mode="normal" in="SourceGraphic" in2="effect1_dropShadow" result="shape"/>
</filter>
<clipPath id="clip0">
<rect x="407" y="276.366" width="68.4156" height="68.4156" rx="26" fill="white"/>
</clipPath>
<clipPath id="clip1">
<rect x="135" y="177" width="78.6074" height="78.6074" rx="26" fill="white"/>
</clipPath>
<clipPath id="clip2">
<rect x="68" y="16" width="60" height="60" rx="22" fill="white"/>
</clipPath>
<clipPath id="clip3">
<rect x="10" y="284" width="91.2727" height="91.2727" rx="36.5091" fill="white"/>
</clipPath>
</defs>
</svg>
