<svg width="36" height="24" viewBox="0 0 36 24" fill="none" xmlns="http://www.w3.org/2000/svg">
<path fill-rule="evenodd" clip-rule="evenodd" d="M0 0.00525005V23.6804H10.0956C11.6287 23.7275 13.1533 23.4354 14.5609 22.8251C15.6801 22.3306 16.632 21.5214 17.3011 20.4956C17.9272 19.4892 18.2498 18.323 18.23 17.1373C18.258 16.0853 18.003 15.0451 17.4918 14.1258C17.0311 13.3144 16.3694 12.6355 15.5705 12.155C14.8037 11.6914 13.9327 11.429 13.0379 11.3918V11.1607C13.8244 10.9915 14.5708 10.6716 15.2361 10.2186C15.8736 9.7808 16.3944 9.19334 16.7532 8.5075C17.1355 7.7547 17.3257 6.91879 17.307 6.07439C17.3276 4.96108 17.0228 3.86603 16.4301 2.92409C15.7895 1.96409 14.8776 1.21746 13.8109 0.779785C12.4303 0.222429 10.949 -0.041327 9.4612 0.00525005H0ZM8.6995 9.91219H4.99593V4.05136H8.79191C9.89931 4.05136 10.755 4.31334 11.359 4.83728C11.6554 5.09193 11.8907 5.41018 12.0475 5.76842C12.2044 6.12667 12.2786 6.5157 12.2648 6.90663C12.2804 7.47797 12.117 8.03985 11.7976 8.51339C11.4768 8.96799 11.0379 9.32584 10.5284 9.54807C9.95186 9.79943 9.32813 9.92361 8.6995 9.91219ZM9.0688 19.588H4.99593V13.2995H9.18431C9.8982 13.2813 10.6067 13.4276 11.2552 13.7272C11.8053 13.9853 12.2713 14.3941 12.5993 14.9063C12.9201 15.4266 13.0843 16.0286 13.0724 16.6401C13.0877 17.0472 13.0093 17.4524 12.8433 17.8242C12.6772 18.1961 12.428 18.5246 12.1148 18.7845C11.4762 19.3202 10.4609 19.588 9.0688 19.588Z" fill="#C2CBCD"/>
<path fill-rule="evenodd" clip-rule="evenodd" d="M23.7929 22.9467C25.0861 23.6733 26.5512 24.0362 28.0334 23.9971C29.5154 24.0362 30.9804 23.6732 32.2735 22.9467C33.4555 22.2558 34.4125 21.2366 35.0287 20.0124C35.698 18.6533 36.0304 17.1526 35.9976 15.6374C36.0319 14.1153 35.6996 12.6073 35.0287 11.2412C34.4124 10.0169 33.4554 8.99766 32.2735 8.30653C30.9803 7.58024 29.5153 7.21743 28.0334 7.25643C26.5513 7.21738 25.0862 7.5802 23.7929 8.30653C22.6109 8.99757 21.6541 10.0169 21.038 11.2412C20.3667 12.6071 20.0342 14.1152 20.0688 15.6374C20.0357 17.1527 20.3682 18.6535 21.038 20.0124C21.654 21.2367 22.6109 22.2559 23.7929 22.9467ZM29.9191 19.8753C29.3964 20.3096 28.7329 20.5369 28.0543 20.5139C27.3678 20.5363 26.6963 20.3095 26.1634 19.8754C25.6275 19.4098 25.2301 18.8053 25.0148 18.1282C24.7468 17.3148 24.6169 16.462 24.6305 15.6055C24.6169 14.7491 24.7468 13.8964 25.0148 13.0831C25.2309 12.4049 25.6281 11.799 26.1634 11.3308C26.695 10.8936 27.3669 10.6647 28.0543 10.6867C28.7338 10.6641 29.3978 10.8935 29.9191 11.3308C30.4459 11.8032 30.8369 12.4082 31.0515 13.0831C31.3197 13.8964 31.4497 14.7491 31.4362 15.6055C31.4497 16.462 31.3197 17.3148 31.0515 18.1282C30.8377 18.802 30.4465 19.4056 29.9191 19.8753Z" fill="#C2CBCD"/>
<path d="M21.2703 0.0325173V6.80493C22.456 6.80471 23.6207 6.49163 24.6472 5.89719C25.6738 5.30276 26.526 4.44794 27.1181 3.41873C26.526 2.38952 25.6738 1.53469 24.6472 0.940258C23.6207 0.345823 22.456 0.032744 21.2703 0.0325173Z" fill="#C2CBCD"/>
<path d="M31.4123 5.89719C30.3858 5.30276 29.5336 4.44794 28.9415 3.41873C29.5336 2.38952 30.3858 1.53469 31.4123 0.940261C32.4389 0.345826 33.6036 0.032746 34.7893 0.0325173V6.80493C33.6036 6.80471 32.4389 6.49163 31.4123 5.89719Z" fill="#C2CBCD"/>
</svg>
